#!OML:ASF E:\emotionWalksFemale\Project 1\Capture day 1\Session 1\Female1.ASF
:FULLY-SPECIFIED
:DEGREES
1124
root 10.3051 15.2243 -38.2572 180.47 -178.749 -179.776
lowerback 4.28003 2.92387 2.9992
upperback -4.82787 4.2376 1.22139
thorax -7.32844 1.96072 -0.839174
lowerneck -11.7307 -5.20444 -6.88412
upperneck 19.6012 -6.16615 1.70211
head 8.29715 -3.26542 1.04112
rclavicle -8.74653e-015 1.19271e-014
rhumerus -38.2746 54.2627 -104.974
rradius 34.9026
rwrist 24.9784
rhand 24.8552 316.544
rfingers 7.12502
rthumb 49.0282 -425.174
lclavicle -8.74653e-015 1.19271e-014
lhumerus -61.1499 -4.02486 81.3132
lradius 32.6526
lwrist -17.2507
lhand 13.0375 -23.1336
lfingers 7.12502
lthumb 38.0012 2.66529
rfemur -4.81401 23.8505 23.7304
rtibia 29.587
rfoot -26.9127 -33.6629
rtoes -7.40845
lfemur -9.29225 -19.3516 -25.7519
ltibia 32.2377
lfoot -32.8071 17.106
ltoes -35.6389
1125
root 10.3301 15.2184 -38.2263 180.467 -178.118 -179.794
lowerback 4.31332 3.05211 3.20944
upperback -4.94765 4.42498 1.12668
thorax -7.44795 2.03489 -1.07868
lowerneck -11.937 -5.15178 -6.82459
upperneck 19.6528 -6.13813 1.91833
head 8.35449 -3.22543 1.10119
rclavicle 3.29983e-014 3.73715e-014
rhumerus -36.236 50.9692 -103.784
rradius 34.6361
rwrist 23.1077
rhand 24.3771 314.088
rfingers 7.12502
rthumb 48.5886 -427.845
lclavicle 3.29983e-014 3.73715e-014
lhumerus -61.3507 -2.66905 81.6451
lradius 32.1969
lwrist -18.8912
lhand 13.0136 -23.361
lfingers 7.12502
lthumb 37.9787 2.44402
rfemur -4.68831 24.5768 23.7263
rtibia 29.5376
rfoot -26.4238 -33.7109
rtoes -6.81144
lfemur -9.07482 -19.1997 -25.9545
ltibia 32.2673
lfoot -32.9979 17.3137
ltoes -34.795
1126
root 10.3534 15.2131 -38.2017 180.515 -177.63 -179.822
lowerback 4.51258 3.20574 3.41379
upperback -5.1709 4.65405 0.966622
thorax -7.76732 2.12126 -1.40231
lowerneck -12.1396 -5.18325 -6.49131
upperneck 19.7647 -6.23272 1.88365
head 8.41938 -3.24825 1.01888
rclavicle 9.67087e-014 3.02153e-014
rhumerus -34.4598 46.7222 -102.654
rradius 34.4
rwrist 21.3016
rhand 22.5255 309.516
rfingers 7.12502
rthumb 46.8801 -433.202
lclavicle 9.67087e-014 3.02153e-014
lhumerus -61.5471 -1.49515 81.9025
lradius 31.766
lwrist -20.5111
lhand 11.9035 -24.0351
lfingers 7.12502
lthumb 36.9294 2.04757
rfemur -4.67678 25.0793 23.6939
rtibia 29.5371
rfoot -25.993 -33.8141
rtoes -6.98527
lfemur -8.93197 -19.153 -26.1016
ltibia 32.2716
lfoot -33.2612 17.5464
ltoes -33.889
1127
root 10.3773 15.2091 -38.1756 180.534 -177.308 -179.801
lowerback 4.31173 3.30985 3.65538
upperback -5.18008 4.78974 0.774966
thorax -7.61866 2.17192 -1.73609
lowerneck -12.2539 -5.20214 -6.22507
upperneck 19.5861 -6.32682 1.98682
head 8.37679 -3.26102 0.998124
rclavicle -6.27166e-014 -1.11319e-014
rhumerus -32.445 41.9975 -101.248
rradius 34.139
rwrist 19.9776
rhand 21.0714 306.573
rfingers 7.12502
rthumb 45.5318 -436.714
lclavicle -6.27166e-014 -1.11319e-014
lhumerus -61.3945 -0.139984 81.9676
lradius 31.2092
lwrist -22.3402
lhand 15.4562 -25.4525
lfingers 7.12502
lthumb 40.2809 -0.311818
rfemur -4.63417 25.3031 23.5956
rtibia 29.5476
rfoot -25.7835 -33.8441
rtoes -7.28186
lfemur -8.78518 -19.1708 -26.3037
ltibia 32.2737
lfoot -33.2377 17.9905
ltoes -33.1187
1128
root 10.4013 15.2032 -38.1473 180.411 -177.066 -179.805
lowerback 4.41865 3.39713 3.74776
upperback -5.29862 4.92096 0.731084
thorax -7.79129 2.22357 -1.85803
lowerneck -12.0772 -5.21857 -6.20893
upperneck 19.3464 -6.39332 2.13889
head 8.2712 -3.27736 1.04506
rclavicle 2.16675e-014 1.59028e-015
rhumerus -31.1914 36.8369 -99.9085
rradius 34.2301
rwrist 19.4627
rhand 18.8946 306.78
rfingers 7.12502
rthumb 43.504 -437.286
lclavicle 2.16675e-014 1.59028e-015
lhumerus -61.4506 1.4189 81.9485
lradius 30.6747
lwrist -23.7083
lhand 10.4972 -27.4037
lfingers 7.12502
lthumb 35.5978 -0.989335
rfemur -4.38127 25.4711 23.6132
rtibia 29.5546
rfoot -25.6296 -33.9513
rtoes -7.529
lfemur -8.49525 -19.2181 -26.5392
ltibia 32.295
lfoot -33.1861 18.2308
ltoes -32.0797
1129
root 10.4235 15.2016 -38.1194 180.459 -176.773 -179.953
lowerback 3.89393 3.56225 3.79252
upperback -5.14664 5.11916 0.833501
thorax -7.31713 2.33712 -1.75063
lowerneck -11.8655 -5.32063 -6.30276
upperneck 18.6922 -6.54252 2.27005
head 8.02873 -3.3416 1.09781
rclavicle -1.5704e-014 -3.57812e-015
rhumerus -29.8353 31.616 -98.2114
rradius 34.6813
rwrist 19.199
rhand 16.1863 307.355
rfingers 7.12502
rthumb 40.9671 -437.571
lclavicle -1.5704e-014 -3.57812e-015
lhumerus -60.971 3.04809 82.09
lradius 30.3448
lwrist -23.4799
lhand 11.1506 -27.9405
lfingers 7.12502
lthumb 36.2169 -1.67756
rfemur -4.3233 25.6539 23.7037
rtibia 29.5498
rfoot -25.4797 -33.8715
rtoes -7.35515
lfemur -8.40484 -19.1219 -26.524
ltibia 32.329
lfoot -33.2154 18.1404
ltoes -30.9997
1130
root 10.4482 15.1967 -38.09 180.464 -176.507 -180.048
lowerback 3.9183 3.73726 3.9499
upperback -5.26224 5.36801 0.78448
thorax -7.4247 2.44507 -1.9175
lowerneck -11.7161 -5.47253 -6.33892
upperneck 18.373 -6.78225 2.43323
head 7.91368 -3.44315 1.1373
rclavicle 4.74101e-014 1.19271e-014
rhumerus -28.9668 25.5727 -96.9405
rradius 35.0463
rwrist 18.8638
rhand 12.4185 308.579
rfingers 7.12502
rthumb 37.4164 -437.377
lclavicle 4.74101e-014 1.19271e-014
lhumerus -60.9464 4.09733 82.4362
lradius 30.3062
lwrist -21.3927
lhand 11.7962 -29.4652
lfingers 7.12502
lthumb 36.8279 -3.3564
rfemur -4.23223 25.8078 23.7279
rtibia 29.5491
rfoot -25.4023 -33.7075
rtoes -7.1787
lfemur -8.25388 -19.1774 -26.6152
ltibia 32.3692
lfoot -33.3682 18.1609
ltoes -30.0938
1131
root 10.4695 15.1912 -38.0658 180.458 -176.44 -180.029
lowerback 3.62886 3.85523 3.85713
upperback -5.16949 5.50148 0.809308
thorax -7.15993 2.52575 -1.82571
lowerneck -11.7085 -5.63214 -6.48335
upperneck 18.0085 -6.98905 2.54955
head 7.81111 -3.53921 1.17914
rclavicle 1.0138e-014 3.97569e-015
rhumerus -28.1005 19.8038 -95.6388
rradius 35.3359
rwrist 18.7199
rhand 7.308 311.187
rfingers 7.12502
rthumb 32.5688 -435.903
lclavicle 1.0138e-014 3.97569e-015
lhumerus -60.5094 5.37514 82.6579
lradius 30.1135
lwrist -18.1694
lhand 13.253 -31.0774
lfingers 7.12502
lthumb 38.2048 -5.33424
rfemur -4.14112 25.8643 23.6561
rtibia 29.5754
rfoot -25.5443 -33.6925
rtoes -7.48396
lfemur -8.13983 -19.1077 -26.7702
ltibia 32.3821
lfoot -33.4421 18.0769
ltoes -29.5566
1132
root 10.4865 15.186 -38.037 180.441 -176.191 -179.997
lowerback 3.99597 3.99357 3.83311
upperback -5.52866 5.71352 0.721073
thorax -7.74259 2.60765 -1.96986
lowerneck -11.4249 -5.70588 -6.66161
upperneck 17.94 -7.12599 2.80421
head 7.76101 -3.59634 1.28433
rclavicle 3.79679e-014 1.11319e-014
rhumerus -28.4414 14.5501 -95.0314
rradius 36.0643
rwrist 18.6425
rhand 3.00716 311.936
rfingers 7.12502
rthumb 28.4674 -435.918
lclavicle 3.79679e-014 1.11319e-014
lhumerus -60.6554 6.57018 82.2503
lradius 29.8597
lwrist -14.9545
lhand 16.3105 -33.4114
lfingers 7.12502
lthumb 41.0838 -8.52167
rfemur -4.12799 25.5581 23.4957
rtibia 29.6609
rfoot -25.2346 -33.3068
rtoes -8.40764
lfemur -7.96092 -18.7811 -26.9197
ltibia 32.3494
lfoot -33.4105 18.2203
ltoes -29.5302
1133
root 10.5051 15.1846 -38.0064 180.505 -176.049 -179.894
lowerback 4.1272 4.11198 3.73137
upperback -5.84476 5.87867 0.642612
thorax -8.15445 2.67671 -2.03833
lowerneck -11.0022 -5.77566 -7.06685
upperneck 17.6467 -7.26403 3.29219
head 7.6308 -3.64935 1.50782
rclavicle 9.75039e-014 1.59028e-014
rhumerus -28.9433 10.0017 -94.2872
rradius 36.9622
rwrist 18.9036
rhand -0.497824 310.806
rfingers 7.12502
rthumb 25.1135 -437.563
lclavicle 9.75039e-014 1.59028e-014
lhumerus -60.7975 7.38078 82.0981
lradius 29.8918
lwrist -12.2288
lhand 16.9204 -32.9625
lfingers 7.12502
lthumb 41.6562 -8.25829
rfemur -4.25354 24.8988 23.1564
rtibia 29.7863
rfoot -24.6719 -32.7454
rtoes -9.52827
lfemur -7.85229 -18.7022 -27.1411
ltibia 32.2795
lfoot -33.3413 18.4967
ltoes -29.6261
1134
root 10.5279 15.1806 -37.9768 180.565 -176.154 -179.779
lowerback 3.53305 4.21941 3.46989
upperback -5.72186 5.97235 0.708192
thorax -7.70106 2.75666 -1.77864
lowerneck -10.6099 -5.94323 -7.53447
upperneck 16.9375 -7.4909 3.68221
head 7.37596 -3.75632 1.7016
rclavicle -2.65378e-014 -4.37326e-015
rhumerus -28.9215 6.10219 -93.0099
rradius 37.6223
rwrist 19.5827
rhand -4.23206 310.814
rfingers 7.12502
rthumb 21.5311 -438.009
lclavicle -2.65378e-014 -4.37326e-015
lhumerus -60.3422 8.26794 81.9072
lradius 30.1578
lwrist -10.1057
lhand 21.1453 -32.8751
lfingers 7.12502
lthumb 45.6004 -9.61603
rfemur -4.29236 24.4045 22.8659
rtibia 29.9245
rfoot -24.8037 -32.4156
rtoes -9.77641
lfemur -7.7625 -18.8276 -27.3867
ltibia 32.2013
lfoot -33.3647 18.4812
ltoes -29.0764
